<svg width="81" height="22" viewBox="0 0 81 22" fill="none" xmlns="http://www.w3.org/2000/svg">
<g opacity="0.75">
<path d="M6.336 15.224C4.53333 15.224 3.15733 14.7227 2.208 13.72C1.26933 12.7173 0.8 11.2933 0.8 9.448C0.8 8.53067 0.944 7.71467 1.232 7C1.52 6.27467 1.91467 5.66667 2.416 5.176C2.91733 4.67467 3.51467 4.296 4.208 4.04C4.90133 3.784 5.65333 3.656 6.464 3.656C6.93333 3.656 7.36 3.69333 7.744 3.768C8.128 3.832 8.464 3.912 8.752 4.008C9.04 4.09333 9.28 4.184 9.472 4.28C9.664 4.376 9.80267 4.45067 9.888 4.504L9.168 6.52C8.82667 6.33867 8.42667 6.184 7.968 6.056C7.52 5.928 7.008 5.864 6.432 5.864C6.048 5.864 5.66933 5.928 5.296 6.056C4.93333 6.184 4.608 6.392 4.32 6.68C4.04267 6.95733 3.81867 7.32 3.648 7.768C3.47733 8.216 3.392 8.76 3.392 9.4C3.392 9.912 3.44533 10.392 3.552 10.84C3.66933 11.2773 3.85067 11.656 4.096 11.976C4.352 12.296 4.68267 12.552 5.088 12.744C5.49333 12.9253 5.984 13.016 6.56 13.016C6.92267 13.016 7.248 12.9947 7.536 12.952C7.824 12.9093 8.08 12.8613 8.304 12.808C8.528 12.744 8.72533 12.6747 8.896 12.6C9.06667 12.5253 9.22133 12.456 9.36 12.392L10.048 14.392C9.696 14.6053 9.2 14.7973 8.56 14.968C7.92 15.1387 7.17867 15.224 6.336 15.224ZM19.1795 10.776C19.1795 11.4373 19.0835 12.0453 18.8915 12.6C18.6995 13.144 18.4222 13.6133 18.0595 14.008C17.6968 14.392 17.2595 14.6907 16.7475 14.904C16.2462 15.1173 15.6808 15.224 15.0515 15.224C14.4328 15.224 13.8675 15.1173 13.3555 14.904C12.8542 14.6907 12.4222 14.392 12.0595 14.008C11.6968 13.6133 11.4142 13.144 11.2115 12.6C11.0088 12.0453 10.9075 11.4373 10.9075 10.776C10.9075 10.1147 11.0088 9.512 11.2115 8.968C11.4248 8.424 11.7128 7.96 12.0755 7.576C12.4488 7.192 12.8862 6.89333 13.3875 6.68C13.8995 6.46667 14.4542 6.36 15.0515 6.36C15.6595 6.36 16.2142 6.46667 16.7155 6.68C17.2275 6.89333 17.6648 7.192 18.0275 7.576C18.3902 7.96 18.6728 8.424 18.8755 8.968C19.0782 9.512 19.1795 10.1147 19.1795 10.776ZM16.7475 10.776C16.7475 10.04 16.5982 9.464 16.2995 9.048C16.0115 8.62133 15.5955 8.408 15.0515 8.408C14.5075 8.408 14.0862 8.62133 13.7875 9.048C13.4888 9.464 13.3395 10.04 13.3395 10.776C13.3395 11.512 13.4888 12.0987 13.7875 12.536C14.0862 12.9627 14.5075 13.176 15.0515 13.176C15.5955 13.176 16.0115 12.9627 16.2995 12.536C16.5982 12.0987 16.7475 11.512 16.7475 10.776ZM21.0263 6.872C21.4316 6.75467 21.9543 6.648 22.5943 6.552C23.2343 6.44533 23.9063 6.392 24.6102 6.392C25.3249 6.392 25.9169 6.488 26.3863 6.68C26.8663 6.86133 27.2449 7.12267 27.5223 7.464C27.7996 7.80533 27.9969 8.21067 28.1143 8.68C28.2316 9.14933 28.2903 9.672 28.2903 10.248V15H25.9063V10.536C25.9063 9.768 25.8049 9.224 25.6023 8.904C25.3996 8.584 25.0209 8.424 24.4663 8.424C24.2956 8.424 24.1143 8.43467 23.9223 8.456C23.7303 8.46667 23.5596 8.48267 23.4103 8.504V15H21.0263V6.872ZM30.4481 6.872C30.8535 6.75467 31.3761 6.648 32.0161 6.552C32.6561 6.44533 33.3281 6.392 34.0321 6.392C34.7468 6.392 35.3388 6.488 35.8081 6.68C36.2881 6.86133 36.6668 7.12267 36.9441 7.464C37.2215 7.80533 37.4188 8.21067 37.5361 8.68C37.6535 9.14933 37.7121 9.672 37.7121 10.248V15H35.3281V10.536C35.3281 9.768 35.2268 9.224 35.0241 8.904C34.8215 8.584 34.4428 8.424 33.8881 8.424C33.7175 8.424 33.5361 8.43467 33.3441 8.456C33.1521 8.46667 32.9815 8.48267 32.8321 8.504V15H30.4481V6.872ZM39.47 10.856C39.47 10.1093 39.582 9.45867 39.806 8.904C40.0407 8.33867 40.3447 7.86933 40.718 7.496C41.0913 7.12267 41.518 6.84 41.998 6.648C42.4887 6.456 42.99 6.36 43.502 6.36C44.6967 6.36 45.6407 6.728 46.334 7.464C47.0273 8.18933 47.374 9.26133 47.374 10.68C47.374 10.8187 47.3687 10.9733 47.358 11.144C47.3473 11.304 47.3367 11.448 47.326 11.576H41.918C41.9713 12.0667 42.2007 12.456 42.606 12.744C43.0113 13.032 43.5553 13.176 44.238 13.176C44.6753 13.176 45.102 13.1387 45.518 13.064C45.9447 12.9787 46.2913 12.8773 46.558 12.76L46.878 14.696C46.75 14.76 46.5793 14.824 46.366 14.888C46.1527 14.952 45.9127 15.0053 45.646 15.048C45.39 15.1013 45.1127 15.144 44.814 15.176C44.5153 15.208 44.2167 15.224 43.918 15.224C43.1607 15.224 42.4993 15.112 41.934 14.888C41.3793 14.664 40.9153 14.36 40.542 13.976C40.1793 13.5813 39.9073 13.1173 39.726 12.584C39.5553 12.0507 39.47 11.4747 39.47 10.856ZM45.07 9.944C45.0593 9.74133 45.022 9.544 44.958 9.352C44.9047 9.16 44.814 8.98933 44.686 8.84C44.5687 8.69067 44.414 8.568 44.222 8.472C44.0407 8.376 43.8113 8.328 43.534 8.328C43.2673 8.328 43.038 8.376 42.846 8.472C42.654 8.55733 42.494 8.67467 42.366 8.824C42.238 8.97333 42.1367 9.14933 42.062 9.352C41.998 9.544 41.95 9.74133 41.918 9.944H45.07ZM48.8138 10.792C48.8138 10.184 48.9098 9.61333 49.1018 9.08C49.3044 8.536 49.5924 8.06667 49.9658 7.672C50.3391 7.26667 50.7924 6.94667 51.3258 6.712C51.8591 6.47733 52.4671 6.36 53.1498 6.36C53.5978 6.36 54.0084 6.40267 54.3818 6.488C54.7551 6.56267 55.1178 6.67467 55.4698 6.824L54.9738 8.728C54.7498 8.64267 54.5044 8.568 54.2378 8.504C53.9711 8.44 53.6724 8.408 53.3418 8.408C52.6378 8.408 52.1098 8.62667 51.7578 9.064C51.4164 9.50133 51.2458 10.0773 51.2458 10.792C51.2458 11.5493 51.4058 12.136 51.7258 12.552C52.0564 12.968 52.6271 13.176 53.4378 13.176C53.7258 13.176 54.0351 13.1493 54.3658 13.096C54.6964 13.0427 55.0004 12.9573 55.2778 12.84L55.6138 14.792C55.3364 14.9093 54.9898 15.0107 54.5738 15.096C54.1578 15.1813 53.6991 15.224 53.1978 15.224C52.4298 15.224 51.7684 15.112 51.2138 14.888C50.6591 14.6533 50.2004 14.3387 49.8378 13.944C49.4858 13.5493 49.2244 13.0853 49.0538 12.552C48.8938 12.008 48.8138 11.4213 48.8138 10.792ZM57.1338 4.488L59.5178 4.104V6.584H62.3818V8.568H59.5178V11.528C59.5178 12.0293 59.6031 12.4293 59.7738 12.728C59.9551 13.0267 60.3124 13.176 60.8458 13.176C61.1018 13.176 61.3631 13.1547 61.6298 13.112C61.9071 13.0587 62.1578 12.9893 62.3818 12.904L62.7178 14.76C62.4298 14.8773 62.1098 14.9787 61.7578 15.064C61.4058 15.1493 60.9738 15.192 60.4618 15.192C59.8111 15.192 59.2724 15.1067 58.8458 14.936C58.4191 14.7547 58.0778 14.5093 57.8218 14.2C57.5658 13.88 57.3844 13.496 57.2778 13.048C57.1818 12.6 57.1338 12.104 57.1338 11.56V4.488Z" fill="white"/>
<path d="M72 9L76 13L80 9" stroke="white" stroke-width="2"/>
</g>
</svg>
